<?xml version="1.0" encoding="UTF-8" standalone="no"?>
<!-- Created with Inkscape (http://www.inkscape.org/) -->

<svg
   width="64"
   height="64"
   viewBox="0 0 16.933333 16.933333"
   version="1.1"
   id="svg1"
   sodipodi:docname="Location.svg"
   inkscape:version="1.3.2 (091e20e, 2023-11-25, custom)"
   xmlns:inkscape="http://www.inkscape.org/namespaces/inkscape"
   xmlns:sodipodi="http://sodipodi.sourceforge.net/DTD/sodipodi-0.dtd"
   xmlns="http://www.w3.org/2000/svg"
   xmlns:svg="http://www.w3.org/2000/svg">
  <sodipodi:namedview
     id="namedview1"
     pagecolor="#ffffff"
     bordercolor="#000000"
     borderopacity="0.25"
     inkscape:showpageshadow="2"
     inkscape:pageopacity="0.0"
     inkscape:pagecheckerboard="0"
     inkscape:deskcolor="#d1d1d1"
     inkscape:document-units="px"
     showgrid="true"
     inkscape:zoom="7.4941884"
     inkscape:cx="42.43288"
     inkscape:cy="37.16213"
     inkscape:window-width="1920"
     inkscape:window-height="991"
     inkscape:window-x="-9"
     inkscape:window-y="-9"
     inkscape:window-maximized="1"
     inkscape:current-layer="layer1">
    <inkscape:grid
       id="grid1"
       units="px"
       originx="0"
       originy="0"
       spacingx="0.52916666"
       spacingy="0.52916666"
       empcolor="#0099e5"
       empopacity="0.30196078"
       color="#0099e5"
       opacity="0.14901961"
       empspacing="5"
       dotted="false"
       gridanglex="30"
       gridanglez="30"
       visible="true" />
  </sodipodi:namedview>
  <defs
     id="defs1" />
  <g
     inkscape:label="Layer 1"
     inkscape:groupmode="layer"
     id="layer1">
    <path
       id="path2"
       style="fill:#e0d9ff;stroke-width:1.32292;fill-opacity:1"
       d="M 8.4666665 0 C 5.2519123 1.2533172e-15 2.6458333 2.606079 2.6458333 5.8208332 C 2.6458335 9.0355873 5.5098531 13.97652 8.4666665 16.933333 C 11.460082 13.939918 14.2875 9.0355871 14.2875 5.8208332 C 14.2875 2.6060791 11.68142 2.2091367e-07 8.4666665 0 z M 8.4666665 3.1749999 A 2.645833 2.645833 0 0 1 11.1125 5.8208332 A 2.645833 2.645833 0 0 1 8.4666665 8.4666665 A 2.645833 2.645833 0 0 1 5.8208332 5.8208332 A 2.645833 2.645833 0 0 1 8.4666665 3.1749999 z " />
  </g>
</svg>
